<svg id="Слой_1" xmlns="http://www.w3.org/2000/svg" xmlns:xlink="http://www.w3.org/1999/xlink" viewBox="0 0 163.3 142.5" width="164" height="142"><style>.st0{fill:#fff}.st1{fill:none;stroke:#37414c;stroke-width:2.2;stroke-linecap:round;stroke-linejoin:round;stroke-miterlimit:10}.st2{fill:#e0e3e5}.st2,.st3,.st4,.st5,.st6{clip-path:url(#SVGID_2_)}.st3{stroke:#37414c;stroke-width:2.2;stroke-linecap:round;stroke-linejoin:round;stroke-miterlimit:10;fill:none}.st4{fill:#fff}.st5{fill:#84d1f5}.st6{fill:none;stroke:#37414b;stroke-width:2.2;stroke-linecap:round;stroke-linejoin:round;stroke-miterlimit:10}</style><path class="st0" d="M136.2 35.7L125.5 25l9.7-9.7 10.7 10.6z"/><path class="st1" d="M136.2 35.7L125.5 25l9.7-9.7 10.7 10.6z"/><defs><path id="SVGID_1_" d="M0 0h163.3v142.5H0z"/></defs><clipPath id="SVGID_2_"><use xlink:href="#SVGID_1_" overflow="visible"/></clipPath><path class="st2" d="M75.7 131.1c-3.5-5.4-5.9-11.4-7.1-17.7-1.5-8.2 10-6.9 11.6-.2 1.5 6.4 4.7 12.3 9.4 17 3.5 3.6 31.8 9.8 41.5-.4 3.2-3.4 5.9-7.4 7.6-12.1 7-18.5-2.3-39.4-20.8-46.4l4.1-10.7c24.4 9.3 36.7 36.7 27.4 61.1-1.3 3.4-3 6.6-4.9 9.5-8.4 8.3-63.6 8-68.8-.1"/><path class="st3" d="M131.1 129.9c3.2-3.4 5.9-7.4 7.6-12.1 7-18.5-2.3-39.4-20.8-46.4l4.1-10.7c9.2 3.5 16.6 9.5 21.9 17m-66.8 55.5c-4.3-5.8-7.2-12.6-8.5-19.7-1.5-8.2 10-6.9 11.6-.2 2.6 11.2 10.6 21 22.2 25.4m47.4-49.3c3.6 10.2 3.7 21.6-.4 32.5-1.9 5-4.5 9.4-7.7 13.3"/><path class="st2" d="M109.5 31.4l12.3-12.3 20.3 20.3-40.4 40.3-20.2-20.3 18.7-18.7"/><path class="st3" d="M109.5 31.4l12.3-12.3 20.3 20.3-40.4 40.3-20.2-20.3 18.7-18.7"/><path transform="rotate(-44.984 88.22 72.927)" class="st4" d="M84.1 53.3h8.3v39.2h-8.3z"/><path transform="rotate(-44.984 88.22 72.927)" class="st3" d="M84.1 53.3h8.3v39.2h-8.3z"/><path class="st2" d="M74.9 82.9l-6.1-6.2 8.7-8.6 6.1 6.1z"/><path class="st3" d="M74.9 82.9l-6.1-6.2 8.7-8.6 6.1 6.1z"/><path class="st2" d="M85.9 93.9l-6.1-6.2 8.7-8.6 6.1 6.1z"/><path class="st3" d="M85.9 93.9l-6.1-6.2 8.7-8.6 6.1 6.1z"/><path class="st4" d="M53.3 106.6h43.3v8.7H53.3z"/><path class="st3" d="M53.3 106.6h43.3v8.7H53.3z"/><path class="st4" d="M110.6 52.4c4.9-4.9 12.7-4.9 17.6 0 4.9 4.9 4.9 12.8 0 17.6-4.9 4.9-12.7 4.9-17.6 0-4.8-4.8-4.8-12.7 0-17.6"/><path class="st3" d="M110.6 52.4c4.9-4.9 12.7-4.9 17.6 0 4.9 4.9 4.9 12.8 0 17.6-4.9 4.9-12.7 4.9-17.6 0-4.8-4.8-4.8-12.7 0-17.6z"/><path class="st4" d="M162.2 141.4s1-12.4-14-12.4H68c-15 0-14 12.4-14 12.4h108.2z"/><path class="st3" d="M162.2 141.4s1-12.4-14-12.4H68c-15 0-14 12.4-14 12.4h108.2z"/><path class="st4" d="M54.3 50.9H5.1c-2.2 0-4-1.8-4-4V20.6c0-2.2 1.8-4 4-4h49.2c2.2 0 4 1.8 4 4v26.3c0 2.2-1.8 4-4 4"/><path class="st5" d="M1.1 16.6V8.8c0-1.9 1.5-3.4 3.4-3.4H55c1.9 0 3.4 1.5 3.4 3.4v7.8H1.1z"/><path class="st6" d="M1.2 16.6h57.1M15.8 1.1v8.7m25.1-8.7v8.7M28.4 1.1v8.7M1.1 22.6V10.3c0-2.6 2.2-4.8 4.8-4.8h9.8m30.3 0h7.6c2.6 0 4.8 2.2 4.8 4.8v35.8c0 2.6-2.2 4.8-4.8 4.8H5.9c-2.6 0-4.8-2.2-4.8-4.8v-14M33.5 5.5h7.3m-19.9 0h7.4M26 25v17.3"/><path class="st6" d="M44.5 25h-11v8.3h11v9h-11M15 25l.1 8.3H26"/></svg>