<svg id="Слой_1" xmlns="http://www.w3.org/2000/svg" xmlns:xlink="http://www.w3.org/1999/xlink" viewBox="0 0 184.4 142.7" width="184" height="143"><style>.st0{clip-path:url(#SVGID_2_);fill:#fff}.st1{fill:#84d1f5}.st1,.st2,.st3{clip-path:url(#SVGID_2_)}.st2{stroke:#37414b;stroke-width:2.2;stroke-linecap:round;stroke-linejoin:round;stroke-miterlimit:10;fill:none}.st3{fill:#e0e3e5}</style><defs><path id="SVGID_1_" d="M0 0h184.4v142.7H0z"/></defs><clipPath id="SVGID_2_"><use xlink:href="#SVGID_1_" overflow="visible"/></clipPath><path class="st0" d="M54.3 50.9H5.1c-2.2 0-4-1.8-4-4V20.6c0-2.2 1.8-4 4-4h49.2c2.2 0 4 1.8 4 4v26.3c0 2.2-1.8 4-4 4"/><path class="st1" d="M1.1 16.6V8.8c0-1.9 1.5-3.4 3.4-3.4H55c1.9 0 3.4 1.5 3.4 3.4v7.8H1.1z"/><path class="st2" d="M1.2 16.6h57.1M15.8 1.1v8.7m25.1-8.7v8.7M28.4 1.1v8.7M1.1 22.6V10.3c0-2.6 2.2-4.8 4.8-4.8h9.8m30.3 0h7.6c2.6 0 4.8 2.2 4.8 4.8v35.8c0 2.6-2.2 4.8-4.8 4.8H5.9c-2.6 0-4.8-2.2-4.8-4.8v-14M33.5 5.5h7.3m-19.9 0h7.4M26 33.3H15"/><path class="st2" d="M15 25h11v16.6H15m29.5.7V25h-11"/><path class="st0" d="M167.7 99.7V75.1H73.6v24.6h-7.2v41.9H175V99.7z"/><path class="st3" d="M66.4 99.7H175v13H66.4zm7.2-36.9h94.1v13H73.6z"/><path class="st2" d="M167.7 99.7h5.2c1.4 0 2.6 1.2 2.6 2.6v39.2m-109.7.1v-39.2c0-1.5 1.2-2.6 2.6-2.6h59.1m-53.9-.1V65.4c0-1.5 1.2-2.6 2.6-2.6H165c1.4 0 2.6 1.2 2.6 2.6v34.3h-27.8m-55.7-52v14.2"/><path class="st3" d="M86.7 39.7c0 1.5-1.2 2.6-2.6 2.6s-2.6-1.2-2.6-2.6c0-1.5 1.2-7.9 2.6-7.9s2.6 6.4 2.6 7.9"/><path class="st2" d="M86.7 39.7c0 1.5-1.2 2.6-2.6 2.6s-2.6-1.2-2.6-2.6c0-1.5 1.2-7.9 2.6-7.9s2.6 6.4 2.6 7.9zm73.1 8v14.2"/><path class="st3" d="M162.4 39.7c0 1.5-1.2 2.6-2.6 2.6-1.4 0-2.6-1.2-2.6-2.6 0-1.5 1.2-7.9 2.6-7.9 1.5 0 2.6 6.4 2.6 7.9"/><path class="st2" d="M162.4 39.7c0 1.5-1.2 2.6-2.6 2.6-1.4 0-2.6-1.2-2.6-2.6 0-1.5 1.2-7.9 2.6-7.9 1.5 0 2.6 6.4 2.6 7.9zm-28.7 8v14.2"/><path class="st3" d="M136.3 39.7c0 1.5-1.2 2.6-2.6 2.6-1.4 0-2.6-1.2-2.6-2.6 0-1.5 1.2-7.9 2.6-7.9 1.4 0 2.6 6.4 2.6 7.9"/><path class="st2" d="M136.3 39.7c0 1.5-1.2 2.6-2.6 2.6-1.4 0-2.6-1.2-2.6-2.6 0-1.5 1.2-7.9 2.6-7.9 1.4 0 2.6 6.4 2.6 7.9zm-28.7 8v14.2"/><path class="st3" d="M110.2 39.7c0 1.5-1.2 2.6-2.6 2.6s-2.6-1.2-2.6-2.6c0-1.5 1.2-7.9 2.6-7.9s2.6 6.4 2.6 7.9"/><path class="st2" d="M110.2 39.7c0 1.5-1.2 2.6-2.6 2.6s-2.6-1.2-2.6-2.6c0-1.5 1.2-7.9 2.6-7.9s2.6 6.4 2.6 7.9zM57.9 141.6h125.4M73.6 75.8h74.8m-56.2 37h82.7"/></svg>