<svg id="Слой_1" xmlns="http://www.w3.org/2000/svg" xmlns:xlink="http://www.w3.org/1999/xlink" viewBox="0 0 90.3 90"><style>.st0,.st1{clip-path:url(#SVGID_2_);fill:#fff}.st1{fill:none;stroke:#37414c;stroke-width:2.2;stroke-linecap:round;stroke-linejoin:round;stroke-miterlimit:10}</style><defs><path id="SVGID_1_" d="M0 0h90.3v90H0z"/></defs><clipPath id="SVGID_2_"><use xlink:href="#SVGID_1_" overflow="visible"/></clipPath><path class="st0" d="M14 14c17.3-17.2 45.1-17.2 62.3-.1s17.2 44.9-.1 62.1-45.1 17.2-62.2.1C-3.2 59-3.2 31.2 14 14"/><path class="st1" d="M1.9 53.4C-.8 39.6 3.3 24.7 14 14c17.3-17.2 45.1-17.2 62.3-.1M86 28.4c4 9.9 4.3 21 .7 31-2.1 6-5.6 11.7-10.5 16.5C59 93.2 31.1 93.2 14 76.1"/></svg>