<svg id="Слой_1" xmlns="http://www.w3.org/2000/svg" xmlns:xlink="http://www.w3.org/1999/xlink" viewBox="0 0 119 59" width="119" height="59"><style>.st0,.st1{clip-path:url(#SVGID_2_);fill:#e0e3e5}.st1{fill:#0af}</style><defs><path id="SVGID_1_" d="M0 0h119v59H0z"/></defs><clipPath id="SVGID_2_"><use xlink:href="#SVGID_1_" overflow="visible"/></clipPath><path class="st0" d="M38.5 22.1c6.4-3.6 13.7-5.5 21-5.5s14.6 1.9 21 5.5l8.3-14.4c-8.9-5-19-7.7-29.3-7.7S39.1 2.7 30.2 7.7l8.3 14.4z"/><path class="st1" d="M0 59h16.6c.1-13.2 6.2-25.3 16.7-33.4L25 11.2C9.4 22.2.2 40 0 59"/><path class="st0" d="M85.7 25.6c10.5 8.1 16.5 20.2 16.7 33.4H119c-.2-19-9.4-36.8-24.9-47.9l-8.4 14.5z"/></svg>