<?xml version="1.0" encoding="utf-8"?>
<!-- Generator: Adobe Illustrator 22.1.0, SVG Export Plug-In . SVG Version: 6.00 Build 0)  -->
<svg version="1.1" id="Слой_1" xmlns="http://www.w3.org/2000/svg" xmlns:xlink="http://www.w3.org/1999/xlink" x="0px" y="0px"
	 viewBox="0 0 184.4 142.7" style="enable-background:new 0 0 184.4 142.7;" xml:space="preserve" width="184" height="143">
<style type="text/css">
	.st0{clip-path:url(#SVGID_2_);fill:#FFFFFF;}
	.st1{clip-path:url(#SVGID_2_);fill:#84D1F5;}

		.st2{clip-path:url(#SVGID_2_);fill:none;stroke:#37414B;stroke-width:2.2;stroke-linecap:round;stroke-linejoin:round;stroke-miterlimit:10;}
	.st3{clip-path:url(#SVGID_2_);fill:#E0E3E5;}
</style>
<g>
	<defs>
		<rect id="SVGID_1_" width="184.4" height="142.7"/>
	</defs>
	<clipPath id="SVGID_2_">
		<use xlink:href="#SVGID_1_"  style="overflow:visible;"/>
	</clipPath>
	<path class="st0" d="M54.3,50.9H5.1c-2.2,0-4-1.8-4-4V20.6c0-2.2,1.8-4,4-4h49.2c2.2,0,4,1.8,4,4v26.3
		C58.3,49.1,56.5,50.9,54.3,50.9"/>
	<path class="st1" d="M1.1,16.6V8.8c0-1.9,1.5-3.4,3.4-3.4h50.5c1.9,0,3.4,1.5,3.4,3.4v7.8H1.1z"/>
	<line class="st2" x1="1.2" y1="16.6" x2="58.3" y2="16.6"/>
	<line class="st2" x1="15.8" y1="1.1" x2="15.8" y2="9.8"/>
	<line class="st2" x1="40.9" y1="1.1" x2="40.9" y2="9.8"/>
	<line class="st2" x1="28.4" y1="1.1" x2="28.4" y2="9.8"/>
	<path class="st2" d="M1.1,22.6V10.3c0-2.6,2.2-4.8,4.8-4.8h9.8"/>
	<path class="st2" d="M46,5.5h7.6c2.6,0,4.8,2.2,4.8,4.8v35.8c0,2.6-2.2,4.8-4.8,4.8H5.9c-2.6,0-4.8-2.2-4.8-4.8v-14"/>
	<line class="st2" x1="33.5" y1="5.5" x2="40.8" y2="5.5"/>
	<line class="st2" x1="20.9" y1="5.5" x2="28.3" y2="5.5"/>
	<line class="st2" x1="26" y1="33.3" x2="15" y2="33.3"/>
	<polyline class="st2" points="15,25 26,25 26,41.6 15,41.6 	"/>
	<polyline class="st2" points="44.5,42.3 44.5,25 33.5,25 	"/>
	<polygon class="st0" points="167.7,99.7 167.7,75.1 73.6,75.1 73.6,99.7 66.4,99.7 66.4,141.6 175,141.6 175,99.7 	"/>
	<rect x="66.4" y="99.7" class="st3" width="108.6" height="13"/>
	<rect x="73.6" y="62.8" class="st3" width="94.1" height="13"/>
	<path class="st2" d="M167.7,99.7h5.2c1.4,0,2.6,1.2,2.6,2.6v39.2"/>
	<path class="st2" d="M65.8,141.6v-39.2c0-1.5,1.2-2.6,2.6-2.6h59.1"/>
	<path class="st2" d="M73.6,99.7V65.4c0-1.5,1.2-2.6,2.6-2.6H165c1.4,0,2.6,1.2,2.6,2.6v34.3h-27.8"/>
	<line class="st2" x1="84.1" y1="47.7" x2="84.1" y2="61.9"/>
	<path class="st3" d="M86.7,39.7c0,1.5-1.2,2.6-2.6,2.6s-2.6-1.2-2.6-2.6c0-1.5,1.2-7.9,2.6-7.9S86.7,38.2,86.7,39.7"/>
	<path class="st2" d="M86.7,39.7c0,1.5-1.2,2.6-2.6,2.6s-2.6-1.2-2.6-2.6c0-1.5,1.2-7.9,2.6-7.9S86.7,38.2,86.7,39.7z"/>
	<line class="st2" x1="159.8" y1="47.7" x2="159.8" y2="61.9"/>
	<path class="st3" d="M162.4,39.7c0,1.5-1.2,2.6-2.6,2.6c-1.4,0-2.6-1.2-2.6-2.6c0-1.5,1.2-7.9,2.6-7.9
		C161.3,31.8,162.4,38.2,162.4,39.7"/>
	<path class="st2" d="M162.4,39.7c0,1.5-1.2,2.6-2.6,2.6c-1.4,0-2.6-1.2-2.6-2.6c0-1.5,1.2-7.9,2.6-7.9
		C161.3,31.8,162.4,38.2,162.4,39.7z"/>
	<line class="st2" x1="133.7" y1="47.7" x2="133.7" y2="61.9"/>
	<path class="st3" d="M136.3,39.7c0,1.5-1.2,2.6-2.6,2.6c-1.4,0-2.6-1.2-2.6-2.6c0-1.5,1.2-7.9,2.6-7.9
		C135.1,31.8,136.3,38.2,136.3,39.7"/>
	<path class="st2" d="M136.3,39.7c0,1.5-1.2,2.6-2.6,2.6c-1.4,0-2.6-1.2-2.6-2.6c0-1.5,1.2-7.9,2.6-7.9
		C135.1,31.8,136.3,38.2,136.3,39.7z"/>
	<line class="st2" x1="107.6" y1="47.7" x2="107.6" y2="61.9"/>
	<path class="st3" d="M110.2,39.7c0,1.5-1.2,2.6-2.6,2.6s-2.6-1.2-2.6-2.6c0-1.5,1.2-7.9,2.6-7.9S110.2,38.2,110.2,39.7"/>
	<path class="st2" d="M110.2,39.7c0,1.5-1.2,2.6-2.6,2.6s-2.6-1.2-2.6-2.6c0-1.5,1.2-7.9,2.6-7.9S110.2,38.2,110.2,39.7z"/>
	<line class="st2" x1="57.9" y1="141.6" x2="183.3" y2="141.6"/>
	<line class="st2" x1="73.6" y1="75.8" x2="148.4" y2="75.8"/>
	<line class="st2" x1="92.2" y1="112.8" x2="174.9" y2="112.8"/>
</g>
</svg>
