<?xml version="1.0" encoding="utf-8"?>
<!-- Generator: Adobe Illustrator 22.1.0, SVG Export Plug-In . SVG Version: 6.00 Build 0)  -->
<svg version="1.1" id="Слой_1" xmlns="http://www.w3.org/2000/svg" xmlns:xlink="http://www.w3.org/1999/xlink" x="0px" y="0px"
	 viewBox="0 0 90.3 90" style="enable-background:new 0 0 90.3 90;" xml:space="preserve">
<style type="text/css">
	.st0{clip-path:url(#SVGID_2_);fill:#FFFFFF;}
	
		.st1{clip-path:url(#SVGID_2_);fill:none;stroke:#37414C;stroke-width:2.2;stroke-linecap:round;stroke-linejoin:round;stroke-miterlimit:10;}
</style>
<g>
	<defs>
		<rect id="SVGID_1_" width="90.3" height="90"/>
	</defs>
	<clipPath id="SVGID_2_">
		<use xlink:href="#SVGID_1_"  style="overflow:visible;"/>
	</clipPath>
	<path class="st0" d="M14,14C31.3-3.2,59.1-3.2,76.3,13.9S93.5,58.8,76.2,76S31.1,93.2,14,76.1C-3.2,59-3.2,31.2,14,14"/>
	<path class="st1" d="M1.9,53.4C-0.8,39.6,3.3,24.7,14,14C31.3-3.2,59.1-3.2,76.3,13.9"/>
	<path class="st1" d="M86,28.4c4,9.9,4.3,21,0.7,31c-2.1,6-5.6,11.7-10.5,16.5C59,93.2,31.1,93.2,14,76.1"/>
</g>
</svg>
