<?xml version="1.0" encoding="utf-8"?>
<!-- Generator: Adobe Illustrator 22.1.0, SVG Export Plug-In . SVG Version: 6.00 Build 0)  -->
<svg version="1.1" id="Слой_1" xmlns="http://www.w3.org/2000/svg" xmlns:xlink="http://www.w3.org/1999/xlink" x="0px" y="0px"
	 viewBox="0 0 163.3 142.5" style="enable-background:new 0 0 163.3 142.5;" xml:space="preserve" width="164" height="142">
<style type="text/css">
	.st0{fill:#FFFFFF;}
	.st1{fill:none;stroke:#37414C;stroke-width:2.2;stroke-linecap:round;stroke-linejoin:round;stroke-miterlimit:10;}
	.st2{clip-path:url(#SVGID_2_);fill:#E0E3E5;}

		.st3{clip-path:url(#SVGID_2_);fill:none;stroke:#37414C;stroke-width:2.2;stroke-linecap:round;stroke-linejoin:round;stroke-miterlimit:10;}
	.st4{clip-path:url(#SVGID_2_);fill:#FFFFFF;}
	.st5{clip-path:url(#SVGID_2_);fill:#84D1F5;}

		.st6{clip-path:url(#SVGID_2_);fill:none;stroke:#37414B;stroke-width:2.2;stroke-linecap:round;stroke-linejoin:round;stroke-miterlimit:10;}
</style>
<polygon class="st0" points="136.2,35.7 125.5,25 135.2,15.3 145.9,25.9 "/>
<polygon class="st1" points="136.2,35.7 125.5,25 135.2,15.3 145.9,25.9 "/>
<g>
	<defs>
		<rect id="SVGID_1_" width="163.3" height="142.5"/>
	</defs>
	<clipPath id="SVGID_2_">
		<use xlink:href="#SVGID_1_"  style="overflow:visible;"/>
	</clipPath>
	<path class="st2" d="M75.7,131.1c-3.5-5.4-5.9-11.4-7.1-17.7c-1.5-8.2,10-6.9,11.6-0.2c1.5,6.4,4.7,12.3,9.4,17
		c3.5,3.6,31.8,9.8,41.5-0.4c3.2-3.4,5.9-7.4,7.6-12.1c7-18.5-2.3-39.4-20.8-46.4l4.1-10.7c24.4,9.3,36.7,36.7,27.4,61.1
		c-1.3,3.4-3,6.6-4.9,9.5C136.1,139.5,80.9,139.2,75.7,131.1"/>
	<path class="st3" d="M131.1,129.9c3.2-3.4,5.9-7.4,7.6-12.1c7-18.5-2.3-39.4-20.8-46.4l4.1-10.7c9.2,3.5,16.6,9.5,21.9,17"/>
	<path class="st3" d="M77.1,133.2c-4.3-5.8-7.2-12.6-8.5-19.7c-1.5-8.2,10-6.9,11.6-0.2c2.6,11.2,10.6,21,22.2,25.4"/>
	<path class="st3" d="M149.8,89.4c3.6,10.2,3.7,21.6-0.4,32.5c-1.9,5-4.5,9.4-7.7,13.3"/>
	<polyline class="st2" points="109.5,31.4 121.8,19.1 142.1,39.4 101.7,79.7 81.5,59.4 100.2,40.7 	"/>
	<polyline class="st3" points="109.5,31.4 121.8,19.1 142.1,39.4 101.7,79.7 81.5,59.4 100.2,40.7 	"/>
	<rect x="84.1" y="53.3" transform="matrix(0.7073 -0.7069 0.7069 0.7073 -25.73 83.7079)" class="st4" width="8.3" height="39.2"/>
	<rect x="84.1" y="53.3" transform="matrix(0.7073 -0.7069 0.7069 0.7073 -25.73 83.7079)" class="st3" width="8.3" height="39.2"/>
	<polygon class="st2" points="74.9,82.9 68.8,76.7 77.5,68.1 83.6,74.2 	"/>
	<polygon class="st3" points="74.9,82.9 68.8,76.7 77.5,68.1 83.6,74.2 	"/>
	<polygon class="st2" points="85.9,93.9 79.8,87.7 88.5,79.1 94.6,85.2 	"/>
	<polygon class="st3" points="85.9,93.9 79.8,87.7 88.5,79.1 94.6,85.2 	"/>
	<rect x="53.3" y="106.6" class="st4" width="43.3" height="8.7"/>
	<rect x="53.3" y="106.6" class="st3" width="43.3" height="8.7"/>
	<path class="st4" d="M110.6,52.4c4.9-4.9,12.7-4.9,17.6,0c4.9,4.9,4.9,12.8,0,17.6c-4.9,4.9-12.7,4.9-17.6,0
		C105.8,65.2,105.8,57.3,110.6,52.4"/>
	<path class="st3" d="M110.6,52.4c4.9-4.9,12.7-4.9,17.6,0c4.9,4.9,4.9,12.8,0,17.6c-4.9,4.9-12.7,4.9-17.6,0
		C105.8,65.2,105.8,57.3,110.6,52.4z"/>
	<path class="st4" d="M162.2,141.4c0,0,1-12.4-14-12.4h-32.6H68c-15,0-14,12.4-14,12.4H162.2z"/>
	<path class="st3" d="M162.2,141.4c0,0,1-12.4-14-12.4h-32.6H68c-15,0-14,12.4-14,12.4H162.2z"/>
	<path class="st4" d="M54.3,50.9H5.1c-2.2,0-4-1.8-4-4V20.6c0-2.2,1.8-4,4-4h49.2c2.2,0,4,1.8,4,4v26.3
		C58.3,49.1,56.5,50.9,54.3,50.9"/>
	<path class="st5" d="M1.1,16.6V8.8c0-1.9,1.5-3.4,3.4-3.4h50.5c1.9,0,3.4,1.5,3.4,3.4v7.8H1.1z"/>
	<line class="st6" x1="1.2" y1="16.6" x2="58.3" y2="16.6"/>
	<line class="st6" x1="15.8" y1="1.1" x2="15.8" y2="9.8"/>
	<line class="st6" x1="40.9" y1="1.1" x2="40.9" y2="9.8"/>
	<line class="st6" x1="28.4" y1="1.1" x2="28.4" y2="9.8"/>
	<path class="st6" d="M1.1,22.6V10.3c0-2.6,2.2-4.8,4.8-4.8h9.8"/>
	<path class="st6" d="M46,5.5h7.6c2.6,0,4.8,2.2,4.8,4.8v35.8c0,2.6-2.2,4.8-4.8,4.8H5.9c-2.6,0-4.8-2.2-4.8-4.8v-14"/>
	<line class="st6" x1="33.5" y1="5.5" x2="40.8" y2="5.5"/>
	<line class="st6" x1="20.9" y1="5.5" x2="28.3" y2="5.5"/>
	<line class="st6" x1="26" y1="25" x2="26" y2="42.3"/>
	<polyline class="st6" points="44.5,25 33.5,25 33.5,33.3 44.5,33.3 44.5,42.3 33.5,42.3 	"/>
	<polyline class="st6" points="15,25 15.1,33.3 26,33.3 	"/>
</g>
</svg>
