<?xml version="1.0" encoding="utf-8"?>
<!-- Generator: Adobe Illustrator 22.1.0, SVG Export Plug-In . SVG Version: 6.00 Build 0)  -->
<svg version="1.1" id="Слой_1" xmlns="http://www.w3.org/2000/svg" xmlns:xlink="http://www.w3.org/1999/xlink" x="0px" y="0px"
	 viewBox="0 0 119 59" style="enable-background:new 0 0 119 59;" xml:space="preserve" width="119" height="59">
<style type="text/css">
	.st0{clip-path:url(#SVGID_2_);fill:#00AAFF;}
</style>
<g>
	<defs>
		<rect id="SVGID_1_" width="119" height="59"/>
	</defs>
	<clipPath id="SVGID_2_">
		<use xlink:href="#SVGID_1_"  style="overflow:visible;"/>
	</clipPath>
	<path class="st0" d="M38.5,22.1c6.4-3.6,13.7-5.5,21-5.5s14.6,1.9,21,5.5l8.3-14.4C79.9,2.7,69.8,0,59.5,0S39.1,2.7,30.2,7.7
		L38.5,22.1z"/>
	<path class="st0" d="M0,59h16.6c0.1-13.2,6.2-25.3,16.7-33.4l-8.3-14.4C9.4,22.2,0.2,40,0,59"/>
	<path class="st0" d="M85.7,25.6c10.5,8.1,16.5,20.2,16.7,33.4H119c-0.2-19-9.4-36.8-24.9-47.9L85.7,25.6z"/>
</g>
</svg>
